# xmcd
#
# Track frame offsets:
#	150
#	5448
#	22343
#	37821
#	55801
#	61475
#	68740
#	87517
#	101843
#	118834
#	137798
#	156524
#	174643
#	190576
#
# Disc length: 2755 seconds
#
# Revision: 0
# Processed by: cddbd v1.5.1PL2 Copyright (c) Steve Scherf et al.
# Submitted via: EasyCDDAExtractor 8.1.2.3
#
DISCID=c50ac10e
DTITLE=Jeff Le Nerf - Les nerfs a vif
DYEAR=2005
DGENRE=Rap
TTITLE0=my name is
TTITLE1=le nerf a vif
TTITLE2=bim bim (ft th %F ko)
TTITLE3=les dents de lamer
TTITLE4=inclassable
TTITLE5=jeff le millionnaire
TTITLE6=buisness goes on
TTITLE7=reves brises
TTITLE8=avec des si
TTITLE9=chacun sa merde
TTITLE10=centaine
TTITLE11=ki sla raconte
TTITLE12=jungle fever
TTITLE13=ils tobservent
EXTD=
EXTT0=
EXTT1=
EXTT2=
EXTT3=
EXTT4=
EXTT5=
EXTT6=
EXTT7=
EXTT8=
EXTT9=
EXTT10=
EXTT11=
EXTT12=
EXTT13=
PLAYORDER=
